<mxfile host="app.diagrams.net" modified="2024-05-20T03:11:09.727Z" agent="Mozilla/5.0 (Windows NT 10.0; Win64; x64) AppleWebKit/537.36 (KHTML, like Gecko) Chrome/123.0.0.0 Safari/537.36 OPR/109.0.0.0" etag="ZDFiwcz_ScUJJhwFZ04b" version="24.4.4" type="onedrive">
  <diagram name="Page-1" id="23xI_3MrU7jTHWdpbXb6">
    <mxGraphModel grid="0" page="0" gridSize="10" guides="1" tooltips="1" connect="1" arrows="1" fold="1" pageScale="1" pageWidth="850" pageHeight="1100" math="0" shadow="0">
      <root>
        <mxCell id="0" />
        <mxCell id="1" parent="0" />
        <mxCell id="_NKHEtc8ZVxSQEfF80o8-9" value=":Productor" style="swimlane;fontStyle=1;align=center;verticalAlign=top;childLayout=stackLayout;horizontal=1;startSize=26;horizontalStack=0;resizeParent=1;resizeParentMax=0;resizeLast=0;collapsible=1;marginBottom=0;whiteSpace=wrap;html=1;" vertex="1" parent="1">
          <mxGeometry x="-227" y="-26" width="160" height="137" as="geometry">
            <mxRectangle x="-6" y="-41" width="90" height="26" as="alternateBounds" />
          </mxGeometry>
        </mxCell>
        <mxCell id="_NKHEtc8ZVxSQEfF80o8-10" value="Nombre = José&lt;div&gt;Edad = 45 años&lt;/div&gt;&lt;div&gt;Telefono = 32045515662&lt;/div&gt;&lt;div&gt;Vender café = Calidad Alta&lt;/div&gt;" style="text;strokeColor=none;fillColor=none;align=left;verticalAlign=top;spacingLeft=4;spacingRight=4;overflow=hidden;rotatable=0;points=[[0,0.5],[1,0.5]];portConstraint=eastwest;whiteSpace=wrap;html=1;" vertex="1" parent="_NKHEtc8ZVxSQEfF80o8-9">
          <mxGeometry y="26" width="160" height="111" as="geometry" />
        </mxCell>
        <mxCell id="_NKHEtc8ZVxSQEfF80o8-20" value="Comprador" style="swimlane;fontStyle=1;align=center;verticalAlign=top;childLayout=stackLayout;horizontal=1;startSize=26;horizontalStack=0;resizeParent=1;resizeParentMax=0;resizeLast=0;collapsible=1;marginBottom=0;whiteSpace=wrap;html=1;" vertex="1" parent="1">
          <mxGeometry x="632" y="1" width="160" height="140" as="geometry" />
        </mxCell>
        <mxCell id="_NKHEtc8ZVxSQEfF80o8-21" value="Nombre = Alvaro&lt;div&gt;&lt;br&gt;&lt;/div&gt;&lt;div&gt;Edad = 72 años&lt;/div&gt;&lt;div&gt;&lt;br&gt;&lt;/div&gt;&lt;div&gt;Telefono = 312546874&lt;/div&gt;&lt;div&gt;&lt;br&gt;&lt;/div&gt;&lt;div&gt;Compra café = Calidad Alta&lt;/div&gt;" style="text;strokeColor=none;fillColor=none;align=left;verticalAlign=top;spacingLeft=4;spacingRight=4;overflow=hidden;rotatable=0;points=[[0,0.5],[1,0.5]];portConstraint=eastwest;whiteSpace=wrap;html=1;" vertex="1" parent="_NKHEtc8ZVxSQEfF80o8-20">
          <mxGeometry y="26" width="160" height="114" as="geometry" />
        </mxCell>
        <mxCell id="_NKHEtc8ZVxSQEfF80o8-24" value="Negociacion" style="swimlane;fontStyle=1;align=center;verticalAlign=top;childLayout=stackLayout;horizontal=1;startSize=26;horizontalStack=0;resizeParent=1;resizeParentMax=0;resizeLast=0;collapsible=1;marginBottom=0;whiteSpace=wrap;html=1;" vertex="1" parent="1">
          <mxGeometry x="180" y="-10" width="160" height="183" as="geometry" />
        </mxCell>
        <mxCell id="_NKHEtc8ZVxSQEfF80o8-25" value="Calidad =&amp;nbsp; Alta&lt;div&gt;&lt;br&gt;&lt;div&gt;Registro de transaccion = 27 abril&lt;/div&gt;&lt;div&gt;&lt;br&gt;&lt;/div&gt;&lt;div&gt;Negociacion de precios = por calidad&lt;/div&gt;&lt;div&gt;&lt;br&gt;&lt;/div&gt;&lt;div&gt;Condicion de pago = Contraentrega&lt;/div&gt;&lt;div&gt;&lt;br&gt;&lt;/div&gt;&lt;/div&gt;" style="text;strokeColor=none;fillColor=none;align=left;verticalAlign=top;spacingLeft=4;spacingRight=4;overflow=hidden;rotatable=0;points=[[0,0.5],[1,0.5]];portConstraint=eastwest;whiteSpace=wrap;html=1;" vertex="1" parent="_NKHEtc8ZVxSQEfF80o8-24">
          <mxGeometry y="26" width="160" height="157" as="geometry" />
        </mxCell>
        <mxCell id="_NKHEtc8ZVxSQEfF80o8-26" value="Secado_de_café" style="swimlane;fontStyle=1;align=center;verticalAlign=top;childLayout=stackLayout;horizontal=1;startSize=26;horizontalStack=0;resizeParent=1;resizeParentMax=0;resizeLast=0;collapsible=1;marginBottom=0;whiteSpace=wrap;html=1;" vertex="1" parent="1">
          <mxGeometry x="619" y="401" width="160" height="257" as="geometry" />
        </mxCell>
        <mxCell id="_NKHEtc8ZVxSQEfF80o8-27" value="Evaluar tiempos y recursos necesarios = 15 horas y 24 galones de gasolina&lt;div&gt;&lt;br&gt;&lt;/div&gt;&lt;div&gt;Empacar café = Bultos&lt;/div&gt;&lt;div&gt;&lt;br&gt;&lt;/div&gt;&lt;div&gt;Pesar café = KGs&lt;/div&gt;&lt;div&gt;&lt;br&gt;&lt;/div&gt;&lt;div&gt;Proteccion café = antihongos&lt;/div&gt;&lt;div&gt;&lt;br&gt;&lt;/div&gt;&lt;div&gt;Mantener humedad adecuada = No exponer a altas temepraturas por m;as tiempo del necesario&lt;/div&gt;" style="text;strokeColor=none;fillColor=none;align=left;verticalAlign=top;spacingLeft=4;spacingRight=4;overflow=hidden;rotatable=0;points=[[0,0.5],[1,0.5]];portConstraint=eastwest;whiteSpace=wrap;html=1;" vertex="1" parent="_NKHEtc8ZVxSQEfF80o8-26">
          <mxGeometry y="26" width="160" height="231" as="geometry" />
        </mxCell>
        <mxCell id="_NKHEtc8ZVxSQEfF80o8-28" value="Evaluacion café" style="swimlane;fontStyle=1;align=center;verticalAlign=top;childLayout=stackLayout;horizontal=1;startSize=26;horizontalStack=0;resizeParent=1;resizeParentMax=0;resizeLast=0;collapsible=1;marginBottom=0;whiteSpace=wrap;html=1;" vertex="1" parent="1">
          <mxGeometry x="180" y="313" width="160" height="184" as="geometry" />
        </mxCell>
        <mxCell id="_NKHEtc8ZVxSQEfF80o8-29" value="Evaluacion visual = Bien&lt;div&gt;&lt;br&gt;&lt;/div&gt;&lt;div&gt;Evaluacion Humedad = Suficiente&lt;/div&gt;&lt;div&gt;&lt;br&gt;&lt;/div&gt;&lt;div&gt;Registro Recepcion = Correcto&lt;/div&gt;&lt;div&gt;&lt;br&gt;&lt;/div&gt;&lt;div&gt;Calidad Café = Alta&lt;/div&gt;&lt;div&gt;&lt;br&gt;&lt;/div&gt;" style="text;strokeColor=none;fillColor=none;align=left;verticalAlign=top;spacingLeft=4;spacingRight=4;overflow=hidden;rotatable=0;points=[[0,0.5],[1,0.5]];portConstraint=eastwest;whiteSpace=wrap;html=1;" vertex="1" parent="_NKHEtc8ZVxSQEfF80o8-28">
          <mxGeometry y="26" width="160" height="158" as="geometry" />
        </mxCell>
        <mxCell id="_NKHEtc8ZVxSQEfF80o8-36" value="Trabajadores&lt;div&gt;&lt;br&gt;&lt;/div&gt;" style="swimlane;fontStyle=1;align=center;verticalAlign=top;childLayout=stackLayout;horizontal=1;startSize=26;horizontalStack=0;resizeParent=1;resizeParentMax=0;resizeLast=0;collapsible=1;marginBottom=0;whiteSpace=wrap;html=1;" vertex="1" parent="1">
          <mxGeometry x="189" y="608" width="160" height="140" as="geometry" />
        </mxCell>
        <mxCell id="_NKHEtc8ZVxSQEfF80o8-37" value="Nombre = Juan&lt;div&gt;&lt;br&gt;&lt;/div&gt;&lt;div&gt;Telefono = 32051548313&lt;/div&gt;&lt;div&gt;&lt;br&gt;&lt;/div&gt;&lt;div&gt;Edad = 25 años&lt;/div&gt;&lt;div&gt;&lt;br&gt;&lt;/div&gt;&lt;div&gt;Cargar = Silo&lt;/div&gt;" style="text;strokeColor=none;fillColor=none;align=left;verticalAlign=top;spacingLeft=4;spacingRight=4;overflow=hidden;rotatable=0;points=[[0,0.5],[1,0.5]];portConstraint=eastwest;whiteSpace=wrap;html=1;" vertex="1" parent="_NKHEtc8ZVxSQEfF80o8-36">
          <mxGeometry y="26" width="160" height="114" as="geometry" />
        </mxCell>
        <mxCell id="_NKHEtc8ZVxSQEfF80o8-49" value="Entrega" style="text;html=1;align=center;verticalAlign=middle;resizable=0;points=[];autosize=1;strokeColor=none;fillColor=none;fontSize=16;" vertex="1" parent="1">
          <mxGeometry x="13" y="47" width="74" height="31" as="geometry" />
        </mxCell>
        <mxCell id="_NKHEtc8ZVxSQEfF80o8-50" value="" style="endArrow=open;endFill=1;endSize=12;html=1;rounded=0;fontSize=12;curved=1;exitX=1;exitY=0.5;exitDx=0;exitDy=0;entryX=0;entryY=0.5;entryDx=0;entryDy=0;" edge="1" parent="1" source="_NKHEtc8ZVxSQEfF80o8-10" target="_NKHEtc8ZVxSQEfF80o8-25">
          <mxGeometry width="160" relative="1" as="geometry">
            <mxPoint x="163" y="313" as="sourcePoint" />
            <mxPoint x="323" y="313" as="targetPoint" />
          </mxGeometry>
        </mxCell>
        <mxCell id="_NKHEtc8ZVxSQEfF80o8-51" value="" style="endArrow=open;endFill=1;endSize=12;html=1;rounded=0;fontSize=12;curved=1;exitX=1;exitY=0.5;exitDx=0;exitDy=0;entryX=0;entryY=0.5;entryDx=0;entryDy=0;" edge="1" parent="1" source="_NKHEtc8ZVxSQEfF80o8-25" target="_NKHEtc8ZVxSQEfF80o8-21">
          <mxGeometry width="160" relative="1" as="geometry">
            <mxPoint x="413" y="313" as="sourcePoint" />
            <mxPoint x="573" y="313" as="targetPoint" />
          </mxGeometry>
        </mxCell>
        <mxCell id="_NKHEtc8ZVxSQEfF80o8-52" value="Entrega" style="text;html=1;align=center;verticalAlign=middle;resizable=0;points=[];autosize=1;strokeColor=none;fillColor=none;fontSize=16;" vertex="1" parent="1">
          <mxGeometry x="437.5" y="55.5" width="74" height="31" as="geometry" />
        </mxCell>
        <mxCell id="_NKHEtc8ZVxSQEfF80o8-53" value="" style="endArrow=open;endFill=1;endSize=12;html=1;rounded=0;fontSize=12;curved=1;exitX=0.016;exitY=0.831;exitDx=0;exitDy=0;exitPerimeter=0;entryX=1.005;entryY=-0.002;entryDx=0;entryDy=0;entryPerimeter=0;" edge="1" parent="1" source="_NKHEtc8ZVxSQEfF80o8-21" target="_NKHEtc8ZVxSQEfF80o8-29">
          <mxGeometry width="160" relative="1" as="geometry">
            <mxPoint x="413" y="313" as="sourcePoint" />
            <mxPoint x="573" y="313" as="targetPoint" />
          </mxGeometry>
        </mxCell>
        <mxCell id="_NKHEtc8ZVxSQEfF80o8-54" value="Evalua" style="text;html=1;align=center;verticalAlign=middle;resizable=0;points=[];autosize=1;strokeColor=none;fillColor=none;fontSize=16;" vertex="1" parent="1">
          <mxGeometry x="420.5" y="213.5" width="67" height="31" as="geometry" />
        </mxCell>
        <mxCell id="_NKHEtc8ZVxSQEfF80o8-55" value="" style="endArrow=open;endFill=1;endSize=12;html=1;rounded=0;fontSize=12;curved=1;exitX=0.5;exitY=0;exitDx=0;exitDy=0;entryX=0.491;entryY=1.013;entryDx=0;entryDy=0;entryPerimeter=0;" edge="1" parent="1" source="_NKHEtc8ZVxSQEfF80o8-28" target="_NKHEtc8ZVxSQEfF80o8-25">
          <mxGeometry width="160" relative="1" as="geometry">
            <mxPoint x="413" y="313" as="sourcePoint" />
            <mxPoint x="573" y="313" as="targetPoint" />
          </mxGeometry>
        </mxCell>
        <mxCell id="_NKHEtc8ZVxSQEfF80o8-71" value="*..1" style="edgeLabel;html=1;align=center;verticalAlign=middle;resizable=0;points=[];fontSize=12;" connectable="0" vertex="1" parent="_NKHEtc8ZVxSQEfF80o8-55">
          <mxGeometry x="-0.8066" y="-3" relative="1" as="geometry">
            <mxPoint x="6" as="offset" />
          </mxGeometry>
        </mxCell>
        <mxCell id="_NKHEtc8ZVxSQEfF80o8-56" value="Evaluacion confirmada" style="text;html=1;align=center;verticalAlign=middle;resizable=0;points=[];autosize=1;strokeColor=none;fillColor=none;fontSize=16;" vertex="1" parent="1">
          <mxGeometry x="159.5" y="233.5" width="180" height="31" as="geometry" />
        </mxCell>
        <mxCell id="_NKHEtc8ZVxSQEfF80o8-60" value="" style="endArrow=open;endFill=1;endSize=12;html=1;rounded=0;fontSize=12;curved=1;exitX=0.516;exitY=1.029;exitDx=0;exitDy=0;exitPerimeter=0;entryX=0.5;entryY=0;entryDx=0;entryDy=0;" edge="1" parent="1" source="_NKHEtc8ZVxSQEfF80o8-21" target="_NKHEtc8ZVxSQEfF80o8-26">
          <mxGeometry width="160" relative="1" as="geometry">
            <mxPoint x="538" y="313" as="sourcePoint" />
            <mxPoint x="698" y="313" as="targetPoint" />
          </mxGeometry>
        </mxCell>
        <mxCell id="_NKHEtc8ZVxSQEfF80o8-61" value="Manda a secar" style="text;html=1;align=center;verticalAlign=middle;resizable=0;points=[];autosize=1;strokeColor=none;fillColor=none;fontSize=16;" vertex="1" parent="1">
          <mxGeometry x="659.5" y="262.5" width="124" height="31" as="geometry" />
        </mxCell>
        <mxCell id="_NKHEtc8ZVxSQEfF80o8-63" value="Secado por" style="text;html=1;align=center;verticalAlign=middle;resizable=0;points=[];autosize=1;strokeColor=none;fillColor=none;fontSize=16;" vertex="1" parent="1">
          <mxGeometry x="394.5" y="589.5" width="100" height="31" as="geometry" />
        </mxCell>
        <mxCell id="_NKHEtc8ZVxSQEfF80o8-64" value="" style="endArrow=open;endFill=1;endSize=12;html=1;rounded=0;fontSize=12;curved=1;exitX=0.005;exitY=0.392;exitDx=0;exitDy=0;exitPerimeter=0;entryX=0.997;entryY=0.436;entryDx=0;entryDy=0;entryPerimeter=0;" edge="1" parent="1" source="_NKHEtc8ZVxSQEfF80o8-27" target="_NKHEtc8ZVxSQEfF80o8-37">
          <mxGeometry width="160" relative="1" as="geometry">
            <mxPoint x="538" y="438" as="sourcePoint" />
            <mxPoint x="698" y="438" as="targetPoint" />
          </mxGeometry>
        </mxCell>
        <mxCell id="_NKHEtc8ZVxSQEfF80o8-65" value="1..*" style="text;html=1;align=center;verticalAlign=middle;resizable=0;points=[];autosize=1;strokeColor=none;fillColor=none;fontSize=16;" vertex="1" parent="1">
          <mxGeometry x="-54" y="40.5" width="42" height="31" as="geometry" />
        </mxCell>
        <mxCell id="_NKHEtc8ZVxSQEfF80o8-66" value="*..1" style="text;html=1;align=center;verticalAlign=middle;resizable=0;points=[];autosize=1;strokeColor=none;fillColor=none;fontSize=16;" vertex="1" parent="1">
          <mxGeometry x="137.5" y="61.5" width="42" height="31" as="geometry" />
        </mxCell>
        <mxCell id="_NKHEtc8ZVxSQEfF80o8-67" value="*..1" style="text;html=1;align=center;verticalAlign=middle;resizable=0;points=[];autosize=1;strokeColor=none;fillColor=none;fontSize=16;" vertex="1" parent="1">
          <mxGeometry x="335.5" y="64.5" width="42" height="31" as="geometry" />
        </mxCell>
        <mxCell id="_NKHEtc8ZVxSQEfF80o8-68" value="1..*" style="text;html=1;align=center;verticalAlign=middle;resizable=0;points=[];autosize=1;strokeColor=none;fillColor=none;fontSize=16;" vertex="1" parent="1">
          <mxGeometry x="564" y="61.5" width="42" height="31" as="geometry" />
        </mxCell>
        <mxCell id="_NKHEtc8ZVxSQEfF80o8-69" value="1..1" style="text;html=1;align=center;verticalAlign=middle;resizable=0;points=[];autosize=1;strokeColor=none;fillColor=none;fontSize=16;" vertex="1" parent="1">
          <mxGeometry x="349.5" y="319.5" width="45" height="31" as="geometry" />
        </mxCell>
        <mxCell id="_NKHEtc8ZVxSQEfF80o8-70" value="1..*" style="text;html=1;align=center;verticalAlign=middle;resizable=0;points=[];autosize=1;strokeColor=none;fillColor=none;fontSize=16;" vertex="1" parent="1">
          <mxGeometry x="573.5" y="152.5" width="42" height="31" as="geometry" />
        </mxCell>
        <mxCell id="_NKHEtc8ZVxSQEfF80o8-72" value="1..1" style="text;html=1;align=center;verticalAlign=middle;resizable=0;points=[];autosize=1;strokeColor=none;fillColor=none;fontSize=16;" vertex="1" parent="1">
          <mxGeometry x="251" y="181" width="45" height="31" as="geometry" />
        </mxCell>
        <mxCell id="_NKHEtc8ZVxSQEfF80o8-73" value="1..*" style="text;html=1;align=center;verticalAlign=middle;resizable=0;points=[];autosize=1;strokeColor=none;fillColor=none;fontSize=16;" vertex="1" parent="1">
          <mxGeometry x="684.5" y="150.5" width="42" height="31" as="geometry" />
        </mxCell>
        <mxCell id="_NKHEtc8ZVxSQEfF80o8-74" value="*..1" style="text;html=1;align=center;verticalAlign=middle;resizable=0;points=[];autosize=1;strokeColor=none;fillColor=none;fontSize=16;" vertex="1" parent="1">
          <mxGeometry x="695.5" y="375.5" width="42" height="31" as="geometry" />
        </mxCell>
        <mxCell id="_NKHEtc8ZVxSQEfF80o8-75" value="1..*" style="text;html=1;align=center;verticalAlign=middle;resizable=0;points=[];autosize=1;strokeColor=none;fillColor=none;fontSize=16;" vertex="1" parent="1">
          <mxGeometry x="584.5" y="527.5" width="42" height="31" as="geometry" />
        </mxCell>
        <mxCell id="_NKHEtc8ZVxSQEfF80o8-76" value="1..1" style="text;html=1;align=center;verticalAlign=middle;resizable=0;points=[];autosize=1;strokeColor=none;fillColor=none;fontSize=16;" vertex="1" parent="1">
          <mxGeometry x="350.5" y="673.5" width="45" height="31" as="geometry" />
        </mxCell>
        <mxCell id="_NKHEtc8ZVxSQEfF80o8-77" value="Compra de cafe" style="shape=umlFrame;whiteSpace=wrap;html=1;pointerEvents=0;" vertex="1" parent="1">
          <mxGeometry x="-325" y="-224" width="1317" height="1100" as="geometry" />
        </mxCell>
        <mxCell id="Cmbi52pBmRQw8JXsqRbH-1" value="Finca" style="shape=umlFrame;whiteSpace=wrap;html=1;pointerEvents=0;" vertex="1" parent="1">
          <mxGeometry x="-1440" y="-240" width="1050" height="1450" as="geometry" />
        </mxCell>
        <mxCell id="Cmbi52pBmRQw8JXsqRbH-6" value="Gestion_Cultivos" style="swimlane;fontStyle=0;childLayout=stackLayout;horizontal=1;startSize=26;fillColor=none;horizontalStack=0;resizeParent=1;resizeParentMax=0;resizeLast=0;collapsible=1;marginBottom=0;whiteSpace=wrap;html=1;" vertex="1" parent="1">
          <mxGeometry x="-1318" y="298.5" width="140" height="154" as="geometry" />
        </mxCell>
        <mxCell id="Cmbi52pBmRQw8JXsqRbH-7" value="Registro_Fecha = 02/24/24" style="text;strokeColor=none;fillColor=none;align=left;verticalAlign=top;spacingLeft=4;spacingRight=4;overflow=hidden;rotatable=0;points=[[0,0.5],[1,0.5]];portConstraint=eastwest;whiteSpace=wrap;html=1;" vertex="1" parent="Cmbi52pBmRQw8JXsqRbH-6">
          <mxGeometry y="26" width="140" height="33" as="geometry" />
        </mxCell>
        <mxCell id="Cmbi52pBmRQw8JXsqRbH-8" value="Ubicacion_Cultivos =&amp;nbsp;&lt;span style=&quot;color: rgb(51, 51, 51); font-family: &amp;quot;Helvetica Neue&amp;quot;, Arial, Helvetica, sans-serif; font-size: 13px;&quot;&gt;Latitud: -11.99186, Longitud: -98.35955&lt;/span&gt;" style="text;strokeColor=none;fillColor=none;align=left;verticalAlign=top;spacingLeft=4;spacingRight=4;overflow=hidden;rotatable=0;points=[[0,0.5],[1,0.5]];portConstraint=eastwest;whiteSpace=wrap;html=1;" vertex="1" parent="Cmbi52pBmRQw8JXsqRbH-6">
          <mxGeometry y="59" width="140" height="53" as="geometry" />
        </mxCell>
        <mxCell id="Cmbi52pBmRQw8JXsqRbH-9" value="Estado_Cultivos = Sin indicios de infeccion" style="text;strokeColor=none;fillColor=none;align=left;verticalAlign=top;spacingLeft=4;spacingRight=4;overflow=hidden;rotatable=0;points=[[0,0.5],[1,0.5]];portConstraint=eastwest;whiteSpace=wrap;html=1;" vertex="1" parent="Cmbi52pBmRQw8JXsqRbH-6">
          <mxGeometry y="112" width="140" height="42" as="geometry" />
        </mxCell>
        <mxCell id="Cmbi52pBmRQw8JXsqRbH-14" value="Trabajadores_Finca" style="swimlane;fontStyle=0;childLayout=stackLayout;horizontal=1;startSize=26;fillColor=none;horizontalStack=0;resizeParent=1;resizeParentMax=0;resizeLast=0;collapsible=1;marginBottom=0;whiteSpace=wrap;html=1;" vertex="1" parent="1">
          <mxGeometry x="-1038" y="132" width="140" height="104" as="geometry" />
        </mxCell>
        <mxCell id="Cmbi52pBmRQw8JXsqRbH-15" value="Nombres = Juan Alberto" style="text;strokeColor=none;fillColor=none;align=left;verticalAlign=top;spacingLeft=4;spacingRight=4;overflow=hidden;rotatable=0;points=[[0,0.5],[1,0.5]];portConstraint=eastwest;whiteSpace=wrap;html=1;" vertex="1" parent="Cmbi52pBmRQw8JXsqRbH-14">
          <mxGeometry y="26" width="140" height="26" as="geometry" />
        </mxCell>
        <mxCell id="Cmbi52pBmRQw8JXsqRbH-16" value="Edad = 32" style="text;strokeColor=none;fillColor=none;align=left;verticalAlign=top;spacingLeft=4;spacingRight=4;overflow=hidden;rotatable=0;points=[[0,0.5],[1,0.5]];portConstraint=eastwest;whiteSpace=wrap;html=1;" vertex="1" parent="Cmbi52pBmRQw8JXsqRbH-14">
          <mxGeometry y="52" width="140" height="26" as="geometry" />
        </mxCell>
        <mxCell id="Cmbi52pBmRQw8JXsqRbH-17" value="Telefono = 523241531" style="text;strokeColor=none;fillColor=none;align=left;verticalAlign=top;spacingLeft=4;spacingRight=4;overflow=hidden;rotatable=0;points=[[0,0.5],[1,0.5]];portConstraint=eastwest;whiteSpace=wrap;html=1;" vertex="1" parent="Cmbi52pBmRQw8JXsqRbH-14">
          <mxGeometry y="78" width="140" height="26" as="geometry" />
        </mxCell>
        <mxCell id="Cmbi52pBmRQw8JXsqRbH-22" value="Café" style="swimlane;fontStyle=0;childLayout=stackLayout;horizontal=1;startSize=26;fillColor=none;horizontalStack=0;resizeParent=1;resizeParentMax=0;resizeLast=0;collapsible=1;marginBottom=0;whiteSpace=wrap;html=1;" vertex="1" parent="1">
          <mxGeometry x="-733" y="537" width="140" height="121" as="geometry" />
        </mxCell>
        <mxCell id="Cmbi52pBmRQw8JXsqRbH-23" value="Calidad_Café = Buena Calidad" style="text;strokeColor=none;fillColor=none;align=left;verticalAlign=top;spacingLeft=4;spacingRight=4;overflow=hidden;rotatable=0;points=[[0,0.5],[1,0.5]];portConstraint=eastwest;whiteSpace=wrap;html=1;" vertex="1" parent="Cmbi52pBmRQw8JXsqRbH-22">
          <mxGeometry y="26" width="140" height="29" as="geometry" />
        </mxCell>
        <mxCell id="Cmbi52pBmRQw8JXsqRbH-24" value="Tipo_Café = arabico" style="text;strokeColor=none;fillColor=none;align=left;verticalAlign=top;spacingLeft=4;spacingRight=4;overflow=hidden;rotatable=0;points=[[0,0.5],[1,0.5]];portConstraint=eastwest;whiteSpace=wrap;html=1;" vertex="1" parent="Cmbi52pBmRQw8JXsqRbH-22">
          <mxGeometry y="55" width="140" height="26" as="geometry" />
        </mxCell>
        <mxCell id="Cmbi52pBmRQw8JXsqRbH-25" value="Estado_Café= Buen estado" style="text;strokeColor=none;fillColor=none;align=left;verticalAlign=top;spacingLeft=4;spacingRight=4;overflow=hidden;rotatable=0;points=[[0,0.5],[1,0.5]];portConstraint=eastwest;whiteSpace=wrap;html=1;" vertex="1" parent="Cmbi52pBmRQw8JXsqRbH-22">
          <mxGeometry y="81" width="140" height="40" as="geometry" />
        </mxCell>
        <mxCell id="Cmbi52pBmRQw8JXsqRbH-26" value="Cosecha" style="swimlane;fontStyle=0;childLayout=stackLayout;horizontal=1;startSize=26;fillColor=none;horizontalStack=0;resizeParent=1;resizeParentMax=0;resizeLast=0;collapsible=1;marginBottom=0;whiteSpace=wrap;html=1;" vertex="1" parent="1">
          <mxGeometry x="-738" y="314" width="140" height="111" as="geometry" />
        </mxCell>
        <mxCell id="Cmbi52pBmRQw8JXsqRbH-27" value="Planificacion_Cosechar = 02/25/29" style="text;strokeColor=none;fillColor=none;align=left;verticalAlign=top;spacingLeft=4;spacingRight=4;overflow=hidden;rotatable=0;points=[[0,0.5],[1,0.5]];portConstraint=eastwest;whiteSpace=wrap;html=1;" vertex="1" parent="Cmbi52pBmRQw8JXsqRbH-26">
          <mxGeometry y="26" width="140" height="34" as="geometry" />
        </mxCell>
        <mxCell id="Cmbi52pBmRQw8JXsqRbH-28" value="Seleccion_Café = Seleccion buena calidad" style="text;strokeColor=none;fillColor=none;align=left;verticalAlign=top;spacingLeft=4;spacingRight=4;overflow=hidden;rotatable=0;points=[[0,0.5],[1,0.5]];portConstraint=eastwest;whiteSpace=wrap;html=1;" vertex="1" parent="Cmbi52pBmRQw8JXsqRbH-26">
          <mxGeometry y="60" width="140" height="51" as="geometry" />
        </mxCell>
        <mxCell id="Cmbi52pBmRQw8JXsqRbH-29" value="" style="endArrow=open;endFill=1;endSize=12;html=1;rounded=0;exitX=0.999;exitY=0.103;exitDx=0;exitDy=0;exitPerimeter=0;entryX=0.112;entryY=0.017;entryDx=0;entryDy=0;entryPerimeter=0;" edge="1" parent="1" source="Cmbi52pBmRQw8JXsqRbH-16" target="Cmbi52pBmRQw8JXsqRbH-26">
          <mxGeometry width="160" relative="1" as="geometry">
            <mxPoint x="-925" y="328" as="sourcePoint" />
            <mxPoint x="-765" y="328" as="targetPoint" />
          </mxGeometry>
        </mxCell>
        <mxCell id="-T7zilVFLdCq8ApnP1Pe-4" value="*..1" style="edgeLabel;html=1;align=center;verticalAlign=middle;resizable=0;points=[];" connectable="0" vertex="1" parent="Cmbi52pBmRQw8JXsqRbH-29">
          <mxGeometry x="-0.7397" relative="1" as="geometry">
            <mxPoint as="offset" />
          </mxGeometry>
        </mxCell>
        <mxCell id="-T7zilVFLdCq8ApnP1Pe-5" value="1..*" style="edgeLabel;html=1;align=center;verticalAlign=middle;resizable=0;points=[];" connectable="0" vertex="1" parent="Cmbi52pBmRQw8JXsqRbH-29">
          <mxGeometry x="0.8155" y="-1" relative="1" as="geometry">
            <mxPoint as="offset" />
          </mxGeometry>
        </mxCell>
        <mxCell id="Cmbi52pBmRQw8JXsqRbH-30" value="" style="endArrow=open;endFill=1;endSize=12;html=1;rounded=0;exitX=0;exitY=0.5;exitDx=0;exitDy=0;entryX=1;entryY=0;entryDx=0;entryDy=0;" edge="1" parent="1" source="Cmbi52pBmRQw8JXsqRbH-16" target="Cmbi52pBmRQw8JXsqRbH-6">
          <mxGeometry width="160" relative="1" as="geometry">
            <mxPoint x="-1092" y="328" as="sourcePoint" />
            <mxPoint x="-932" y="328" as="targetPoint" />
          </mxGeometry>
        </mxCell>
        <mxCell id="-T7zilVFLdCq8ApnP1Pe-2" value="*..1" style="edgeLabel;html=1;align=center;verticalAlign=middle;resizable=0;points=[];" connectable="0" vertex="1" parent="Cmbi52pBmRQw8JXsqRbH-30">
          <mxGeometry x="-0.7777" y="1" relative="1" as="geometry">
            <mxPoint as="offset" />
          </mxGeometry>
        </mxCell>
        <mxCell id="-T7zilVFLdCq8ApnP1Pe-3" value="1..*" style="edgeLabel;html=1;align=center;verticalAlign=middle;resizable=0;points=[];" connectable="0" vertex="1" parent="Cmbi52pBmRQw8JXsqRbH-30">
          <mxGeometry x="0.8096" y="-2" relative="1" as="geometry">
            <mxPoint as="offset" />
          </mxGeometry>
        </mxCell>
        <mxCell id="Cmbi52pBmRQw8JXsqRbH-31" value="" style="endArrow=open;endFill=1;endSize=12;html=1;rounded=0;exitX=0.469;exitY=1.065;exitDx=0;exitDy=0;exitPerimeter=0;entryX=0.449;entryY=0.006;entryDx=0;entryDy=0;entryPerimeter=0;" edge="1" parent="1" source="Cmbi52pBmRQw8JXsqRbH-28" target="Cmbi52pBmRQw8JXsqRbH-22">
          <mxGeometry width="160" relative="1" as="geometry">
            <mxPoint x="-925" y="328" as="sourcePoint" />
            <mxPoint x="-765" y="328" as="targetPoint" />
          </mxGeometry>
        </mxCell>
        <mxCell id="-T7zilVFLdCq8ApnP1Pe-6" value="1..*" style="edgeLabel;html=1;align=center;verticalAlign=middle;resizable=0;points=[];" connectable="0" vertex="1" parent="Cmbi52pBmRQw8JXsqRbH-31">
          <mxGeometry x="-0.7339" y="2" relative="1" as="geometry">
            <mxPoint as="offset" />
          </mxGeometry>
        </mxCell>
        <mxCell id="-T7zilVFLdCq8ApnP1Pe-7" value="&lt;div&gt;*..1&lt;br&gt;&lt;/div&gt;" style="edgeLabel;html=1;align=center;verticalAlign=middle;resizable=0;points=[];" connectable="0" vertex="1" parent="Cmbi52pBmRQw8JXsqRbH-31">
          <mxGeometry x="0.6176" y="2" relative="1" as="geometry">
            <mxPoint as="offset" />
          </mxGeometry>
        </mxCell>
        <mxCell id="Cmbi52pBmRQw8JXsqRbH-32" value="Sistema de negociacion trilladora" style="shape=umlFrame;whiteSpace=wrap;html=1;pointerEvents=0;width=190;height=60;" vertex="1" parent="1">
          <mxGeometry x="1014" y="-200" width="859" height="998" as="geometry" />
        </mxCell>
        <mxCell id="Cmbi52pBmRQw8JXsqRbH-33" value="Trabajadores" style="swimlane;fontStyle=0;childLayout=stackLayout;horizontal=1;startSize=26;fillColor=none;horizontalStack=0;resizeParent=1;resizeParentMax=0;resizeLast=0;collapsible=1;marginBottom=0;whiteSpace=wrap;html=1;" vertex="1" parent="1">
          <mxGeometry x="1248" y="258" width="140" height="136" as="geometry" />
        </mxCell>
        <mxCell id="Cmbi52pBmRQw8JXsqRbH-34" value="Nombre = José" style="text;strokeColor=none;fillColor=none;align=left;verticalAlign=top;spacingLeft=4;spacingRight=4;overflow=hidden;rotatable=0;points=[[0,0.5],[1,0.5]];portConstraint=eastwest;whiteSpace=wrap;html=1;" vertex="1" parent="Cmbi52pBmRQw8JXsqRbH-33">
          <mxGeometry y="26" width="140" height="26" as="geometry" />
        </mxCell>
        <mxCell id="Cmbi52pBmRQw8JXsqRbH-35" value="Edad = 25" style="text;strokeColor=none;fillColor=none;align=left;verticalAlign=top;spacingLeft=4;spacingRight=4;overflow=hidden;rotatable=0;points=[[0,0.5],[1,0.5]];portConstraint=eastwest;whiteSpace=wrap;html=1;" vertex="1" parent="Cmbi52pBmRQw8JXsqRbH-33">
          <mxGeometry y="52" width="140" height="26" as="geometry" />
        </mxCell>
        <mxCell id="Cmbi52pBmRQw8JXsqRbH-36" value="Telefono = 3200451881&lt;div&gt;&lt;br&gt;&lt;div&gt;Carga = Café&lt;/div&gt;&lt;/div&gt;" style="text;strokeColor=none;fillColor=none;align=left;verticalAlign=top;spacingLeft=4;spacingRight=4;overflow=hidden;rotatable=0;points=[[0,0.5],[1,0.5]];portConstraint=eastwest;whiteSpace=wrap;html=1;" vertex="1" parent="Cmbi52pBmRQw8JXsqRbH-33">
          <mxGeometry y="78" width="140" height="58" as="geometry" />
        </mxCell>
        <mxCell id="Cmbi52pBmRQw8JXsqRbH-37" value="Almacenamiento" style="swimlane;fontStyle=0;childLayout=stackLayout;horizontal=1;startSize=26;fillColor=none;horizontalStack=0;resizeParent=1;resizeParentMax=0;resizeLast=0;collapsible=1;marginBottom=0;whiteSpace=wrap;html=1;" vertex="1" parent="1">
          <mxGeometry x="1649" y="116" width="140" height="92" as="geometry" />
        </mxCell>
        <mxCell id="Cmbi52pBmRQw8JXsqRbH-38" value="Espacio = 250 M2" style="text;strokeColor=none;fillColor=none;align=left;verticalAlign=top;spacingLeft=4;spacingRight=4;overflow=hidden;rotatable=0;points=[[0,0.5],[1,0.5]];portConstraint=eastwest;whiteSpace=wrap;html=1;" vertex="1" parent="Cmbi52pBmRQw8JXsqRbH-37">
          <mxGeometry y="26" width="140" height="26" as="geometry" />
        </mxCell>
        <mxCell id="Cmbi52pBmRQw8JXsqRbH-39" value="Stock (Bultos) = 50 Bultos" style="text;strokeColor=none;fillColor=none;align=left;verticalAlign=top;spacingLeft=4;spacingRight=4;overflow=hidden;rotatable=0;points=[[0,0.5],[1,0.5]];portConstraint=eastwest;whiteSpace=wrap;html=1;" vertex="1" parent="Cmbi52pBmRQw8JXsqRbH-37">
          <mxGeometry y="52" width="140" height="40" as="geometry" />
        </mxCell>
        <mxCell id="Cmbi52pBmRQw8JXsqRbH-40" value="Vendedor" style="swimlane;fontStyle=0;childLayout=stackLayout;horizontal=1;startSize=26;fillColor=none;horizontalStack=0;resizeParent=1;resizeParentMax=0;resizeLast=0;collapsible=1;marginBottom=0;whiteSpace=wrap;html=1;" vertex="1" parent="1">
          <mxGeometry x="1119" y="-100" width="140" height="104" as="geometry" />
        </mxCell>
        <mxCell id="Cmbi52pBmRQw8JXsqRbH-41" value="Nombre = Alberto" style="text;strokeColor=none;fillColor=none;align=left;verticalAlign=top;spacingLeft=4;spacingRight=4;overflow=hidden;rotatable=0;points=[[0,0.5],[1,0.5]];portConstraint=eastwest;whiteSpace=wrap;html=1;" vertex="1" parent="Cmbi52pBmRQw8JXsqRbH-40">
          <mxGeometry y="26" width="140" height="26" as="geometry" />
        </mxCell>
        <mxCell id="Cmbi52pBmRQw8JXsqRbH-42" value="Edad = 28" style="text;strokeColor=none;fillColor=none;align=left;verticalAlign=top;spacingLeft=4;spacingRight=4;overflow=hidden;rotatable=0;points=[[0,0.5],[1,0.5]];portConstraint=eastwest;whiteSpace=wrap;html=1;" vertex="1" parent="Cmbi52pBmRQw8JXsqRbH-40">
          <mxGeometry y="52" width="140" height="26" as="geometry" />
        </mxCell>
        <mxCell id="Cmbi52pBmRQw8JXsqRbH-43" value="Telefono = 320518481" style="text;strokeColor=none;fillColor=none;align=left;verticalAlign=top;spacingLeft=4;spacingRight=4;overflow=hidden;rotatable=0;points=[[0,0.5],[1,0.5]];portConstraint=eastwest;whiteSpace=wrap;html=1;" vertex="1" parent="Cmbi52pBmRQw8JXsqRbH-40">
          <mxGeometry y="78" width="140" height="26" as="geometry" />
        </mxCell>
        <mxCell id="Cmbi52pBmRQw8JXsqRbH-44" value="Comprador" style="swimlane;fontStyle=0;childLayout=stackLayout;horizontal=1;startSize=26;fillColor=none;horizontalStack=0;resizeParent=1;resizeParentMax=0;resizeLast=0;collapsible=1;marginBottom=0;whiteSpace=wrap;html=1;" vertex="1" parent="1">
          <mxGeometry x="1639" y="-99" width="140" height="104" as="geometry" />
        </mxCell>
        <mxCell id="Cmbi52pBmRQw8JXsqRbH-45" value="Nombre = Juan" style="text;strokeColor=none;fillColor=none;align=left;verticalAlign=top;spacingLeft=4;spacingRight=4;overflow=hidden;rotatable=0;points=[[0,0.5],[1,0.5]];portConstraint=eastwest;whiteSpace=wrap;html=1;" vertex="1" parent="Cmbi52pBmRQw8JXsqRbH-44">
          <mxGeometry y="26" width="140" height="26" as="geometry" />
        </mxCell>
        <mxCell id="Cmbi52pBmRQw8JXsqRbH-46" value="Edad = 58" style="text;strokeColor=none;fillColor=none;align=left;verticalAlign=top;spacingLeft=4;spacingRight=4;overflow=hidden;rotatable=0;points=[[0,0.5],[1,0.5]];portConstraint=eastwest;whiteSpace=wrap;html=1;" vertex="1" parent="Cmbi52pBmRQw8JXsqRbH-44">
          <mxGeometry y="52" width="140" height="26" as="geometry" />
        </mxCell>
        <mxCell id="Cmbi52pBmRQw8JXsqRbH-47" value="Telefono = 2121518481" style="text;strokeColor=none;fillColor=none;align=left;verticalAlign=top;spacingLeft=4;spacingRight=4;overflow=hidden;rotatable=0;points=[[0,0.5],[1,0.5]];portConstraint=eastwest;whiteSpace=wrap;html=1;" vertex="1" parent="Cmbi52pBmRQw8JXsqRbH-44">
          <mxGeometry y="78" width="140" height="26" as="geometry" />
        </mxCell>
        <mxCell id="Cmbi52pBmRQw8JXsqRbH-48" value="Negociacion" style="swimlane;fontStyle=0;childLayout=stackLayout;horizontal=1;startSize=26;fillColor=none;horizontalStack=0;resizeParent=1;resizeParentMax=0;resizeLast=0;collapsible=1;marginBottom=0;whiteSpace=wrap;html=1;" vertex="1" parent="1">
          <mxGeometry x="1372" y="-98" width="140" height="160" as="geometry" />
        </mxCell>
        <mxCell id="Cmbi52pBmRQw8JXsqRbH-49" value="Contrato = Largo Plazo" style="text;strokeColor=none;fillColor=none;align=left;verticalAlign=top;spacingLeft=4;spacingRight=4;overflow=hidden;rotatable=0;points=[[0,0.5],[1,0.5]];portConstraint=eastwest;whiteSpace=wrap;html=1;" vertex="1" parent="Cmbi52pBmRQw8JXsqRbH-48">
          <mxGeometry y="26" width="140" height="26" as="geometry" />
        </mxCell>
        <mxCell id="Cmbi52pBmRQw8JXsqRbH-50" value="Calidad_Cafe = Alta calidad" style="text;strokeColor=none;fillColor=none;align=left;verticalAlign=top;spacingLeft=4;spacingRight=4;overflow=hidden;rotatable=0;points=[[0,0.5],[1,0.5]];portConstraint=eastwest;whiteSpace=wrap;html=1;" vertex="1" parent="Cmbi52pBmRQw8JXsqRbH-48">
          <mxGeometry y="52" width="140" height="37" as="geometry" />
        </mxCell>
        <mxCell id="Cmbi52pBmRQw8JXsqRbH-51" value="Oferta = 250 millones&lt;div&gt;&lt;br&gt;&lt;/div&gt;&lt;div&gt;Valor en bolsa = 240 millones&lt;/div&gt;" style="text;strokeColor=none;fillColor=none;align=left;verticalAlign=top;spacingLeft=4;spacingRight=4;overflow=hidden;rotatable=0;points=[[0,0.5],[1,0.5]];portConstraint=eastwest;whiteSpace=wrap;html=1;" vertex="1" parent="Cmbi52pBmRQw8JXsqRbH-48">
          <mxGeometry y="89" width="140" height="71" as="geometry" />
        </mxCell>
        <mxCell id="Cmbi52pBmRQw8JXsqRbH-56" value="Café_Seco" style="swimlane;fontStyle=0;childLayout=stackLayout;horizontal=1;startSize=26;fillColor=none;horizontalStack=0;resizeParent=1;resizeParentMax=0;resizeLast=0;collapsible=1;marginBottom=0;whiteSpace=wrap;html=1;" vertex="1" parent="1">
          <mxGeometry x="837" y="713" width="140" height="128" as="geometry" />
        </mxCell>
        <mxCell id="Cmbi52pBmRQw8JXsqRbH-57" value="Tipo_Café = Arabico" style="text;strokeColor=none;fillColor=none;align=left;verticalAlign=top;spacingLeft=4;spacingRight=4;overflow=hidden;rotatable=0;points=[[0,0.5],[1,0.5]];portConstraint=eastwest;whiteSpace=wrap;html=1;" vertex="1" parent="Cmbi52pBmRQw8JXsqRbH-56">
          <mxGeometry y="26" width="140" height="26" as="geometry" />
        </mxCell>
        <mxCell id="Cmbi52pBmRQw8JXsqRbH-58" value="Calidad_Café = Calidad Alta" style="text;strokeColor=none;fillColor=none;align=left;verticalAlign=top;spacingLeft=4;spacingRight=4;overflow=hidden;rotatable=0;points=[[0,0.5],[1,0.5]];portConstraint=eastwest;whiteSpace=wrap;html=1;" vertex="1" parent="Cmbi52pBmRQw8JXsqRbH-56">
          <mxGeometry y="52" width="140" height="38" as="geometry" />
        </mxCell>
        <mxCell id="Cmbi52pBmRQw8JXsqRbH-59" value="Cantidad_Café = 7 Bultos" style="text;strokeColor=none;fillColor=none;align=left;verticalAlign=top;spacingLeft=4;spacingRight=4;overflow=hidden;rotatable=0;points=[[0,0.5],[1,0.5]];portConstraint=eastwest;whiteSpace=wrap;html=1;" vertex="1" parent="Cmbi52pBmRQw8JXsqRbH-56">
          <mxGeometry y="90" width="140" height="38" as="geometry" />
        </mxCell>
        <mxCell id="Cmbi52pBmRQw8JXsqRbH-60" value="" style="endArrow=none;html=1;rounded=0;entryX=0.993;entryY=0.995;entryDx=0;entryDy=0;entryPerimeter=0;exitX=0;exitY=0;exitDx=0;exitDy=0;" edge="1" parent="1" source="Cmbi52pBmRQw8JXsqRbH-56" target="_NKHEtc8ZVxSQEfF80o8-27">
          <mxGeometry width="50" height="50" relative="1" as="geometry">
            <mxPoint x="637" y="627" as="sourcePoint" />
            <mxPoint x="687" y="577" as="targetPoint" />
          </mxGeometry>
        </mxCell>
        <mxCell id="-T7zilVFLdCq8ApnP1Pe-16" value="1..*" style="edgeLabel;html=1;align=center;verticalAlign=middle;resizable=0;points=[];" connectable="0" vertex="1" parent="Cmbi52pBmRQw8JXsqRbH-60">
          <mxGeometry x="0.793" y="3" relative="1" as="geometry">
            <mxPoint as="offset" />
          </mxGeometry>
        </mxCell>
        <mxCell id="-T7zilVFLdCq8ApnP1Pe-17" value="*..1" style="edgeLabel;html=1;align=center;verticalAlign=middle;resizable=0;points=[];" connectable="0" vertex="1" parent="Cmbi52pBmRQw8JXsqRbH-60">
          <mxGeometry x="-0.7922" y="2" relative="1" as="geometry">
            <mxPoint as="offset" />
          </mxGeometry>
        </mxCell>
        <mxCell id="Cmbi52pBmRQw8JXsqRbH-61" value="Se encarga de&amp;nbsp;" style="text;html=1;align=center;verticalAlign=middle;resizable=0;points=[];autosize=1;strokeColor=none;fillColor=none;rotation=-35;" vertex="1" parent="1">
          <mxGeometry x="-1169" y="220" width="99" height="26" as="geometry" />
        </mxCell>
        <mxCell id="Cmbi52pBmRQw8JXsqRbH-62" value="Se encarga de" style="text;html=1;align=center;verticalAlign=middle;resizable=0;points=[];autosize=1;strokeColor=none;fillColor=none;rotation=30;" vertex="1" parent="1">
          <mxGeometry x="-842" y="224" width="96" height="26" as="geometry" />
        </mxCell>
        <mxCell id="Cmbi52pBmRQw8JXsqRbH-63" value="Produce" style="text;html=1;align=center;verticalAlign=middle;resizable=0;points=[];autosize=1;strokeColor=none;fillColor=none;" vertex="1" parent="1">
          <mxGeometry x="-666" y="458" width="63" height="26" as="geometry" />
        </mxCell>
        <mxCell id="Cmbi52pBmRQw8JXsqRbH-64" value="Entrega" style="text;html=1;align=center;verticalAlign=middle;resizable=0;points=[];autosize=1;strokeColor=none;fillColor=none;" vertex="1" parent="1">
          <mxGeometry x="1277" y="-60" width="60" height="26" as="geometry" />
        </mxCell>
        <mxCell id="Cmbi52pBmRQw8JXsqRbH-65" value="Entrega" style="text;html=1;align=center;verticalAlign=middle;resizable=0;points=[];autosize=1;strokeColor=none;fillColor=none;" vertex="1" parent="1">
          <mxGeometry x="1546" y="-60" width="60" height="26" as="geometry" />
        </mxCell>
        <mxCell id="Cmbi52pBmRQw8JXsqRbH-66" value="Almacena" style="text;html=1;align=center;verticalAlign=middle;resizable=0;points=[];autosize=1;strokeColor=none;fillColor=none;" vertex="1" parent="1">
          <mxGeometry x="1690" y="43" width="71" height="26" as="geometry" />
        </mxCell>
        <mxCell id="Cmbi52pBmRQw8JXsqRbH-67" value="Guardan" style="text;html=1;align=center;verticalAlign=middle;resizable=0;points=[];autosize=1;strokeColor=none;fillColor=none;" vertex="1" parent="1">
          <mxGeometry x="1470" y="210.5" width="65" height="26" as="geometry" />
        </mxCell>
        <mxCell id="Cmbi52pBmRQw8JXsqRbH-68" value="" style="endArrow=open;endFill=1;endSize=12;html=1;rounded=0;exitX=1;exitY=0.5;exitDx=0;exitDy=0;entryX=0;entryY=0.5;entryDx=0;entryDy=0;" edge="1" parent="1" source="Cmbi52pBmRQw8JXsqRbH-42" target="Cmbi52pBmRQw8JXsqRbH-50">
          <mxGeometry width="160" relative="1" as="geometry">
            <mxPoint x="1424" y="181" as="sourcePoint" />
            <mxPoint x="1584" y="181" as="targetPoint" />
          </mxGeometry>
        </mxCell>
        <mxCell id="Cmbi52pBmRQw8JXsqRbH-69" value="" style="endArrow=open;endFill=1;endSize=12;html=1;rounded=0;exitX=1;exitY=0.5;exitDx=0;exitDy=0;entryX=0.044;entryY=-0.087;entryDx=0;entryDy=0;entryPerimeter=0;" edge="1" parent="1" source="Cmbi52pBmRQw8JXsqRbH-50" target="Cmbi52pBmRQw8JXsqRbH-47">
          <mxGeometry width="160" relative="1" as="geometry">
            <mxPoint x="1424" y="181" as="sourcePoint" />
            <mxPoint x="1584" y="181" as="targetPoint" />
          </mxGeometry>
        </mxCell>
        <mxCell id="Cmbi52pBmRQw8JXsqRbH-70" value="" style="endArrow=open;endFill=1;endSize=12;html=1;rounded=0;exitX=0.3;exitY=0.966;exitDx=0;exitDy=0;exitPerimeter=0;entryX=0.25;entryY=0;entryDx=0;entryDy=0;" edge="1" parent="1" source="Cmbi52pBmRQw8JXsqRbH-47" target="Cmbi52pBmRQw8JXsqRbH-37">
          <mxGeometry width="160" relative="1" as="geometry">
            <mxPoint x="1424" y="181" as="sourcePoint" />
            <mxPoint x="1584" y="181" as="targetPoint" />
          </mxGeometry>
        </mxCell>
        <mxCell id="Cmbi52pBmRQw8JXsqRbH-71" value="" style="endArrow=open;endFill=1;endSize=12;html=1;rounded=0;exitX=1;exitY=0.5;exitDx=0;exitDy=0;entryX=-0.02;entryY=1.008;entryDx=0;entryDy=0;entryPerimeter=0;" edge="1" parent="1" source="Cmbi52pBmRQw8JXsqRbH-34" target="Cmbi52pBmRQw8JXsqRbH-39">
          <mxGeometry width="160" relative="1" as="geometry">
            <mxPoint x="1424" y="181" as="sourcePoint" />
            <mxPoint x="1584" y="181" as="targetPoint" />
          </mxGeometry>
        </mxCell>
        <mxCell id="Cmbi52pBmRQw8JXsqRbH-72" value="1..*" style="text;html=1;align=center;verticalAlign=middle;resizable=0;points=[];autosize=1;strokeColor=none;fillColor=none;" vertex="1" parent="1">
          <mxGeometry x="1580" y="196" width="36" height="26" as="geometry" />
        </mxCell>
        <mxCell id="Cmbi52pBmRQw8JXsqRbH-73" value="*..1" style="text;html=1;align=center;verticalAlign=middle;resizable=0;points=[];autosize=1;strokeColor=none;fillColor=none;" vertex="1" parent="1">
          <mxGeometry x="1390" y="265" width="36" height="26" as="geometry" />
        </mxCell>
        <mxCell id="Cmbi52pBmRQw8JXsqRbH-74" value="1..*" style="text;html=1;align=center;verticalAlign=middle;resizable=0;points=[];autosize=1;strokeColor=none;fillColor=none;" vertex="1" parent="1">
          <mxGeometry x="1635" y="6" width="36" height="26" as="geometry" />
        </mxCell>
        <mxCell id="Cmbi52pBmRQw8JXsqRbH-75" value="1..1" style="text;html=1;align=center;verticalAlign=middle;resizable=0;points=[];autosize=1;strokeColor=none;fillColor=none;" vertex="1" parent="1">
          <mxGeometry x="1641" y="87" width="38" height="26" as="geometry" />
        </mxCell>
        <mxCell id="Cmbi52pBmRQw8JXsqRbH-76" value="*..1" style="text;html=1;align=center;verticalAlign=middle;resizable=0;points=[];autosize=1;strokeColor=none;fillColor=none;" vertex="1" parent="1">
          <mxGeometry x="1510" y="-25" width="36" height="26" as="geometry" />
        </mxCell>
        <mxCell id="Cmbi52pBmRQw8JXsqRbH-77" value="1..*" style="text;html=1;align=center;verticalAlign=middle;resizable=0;points=[];autosize=1;strokeColor=none;fillColor=none;" vertex="1" parent="1">
          <mxGeometry x="1603" y="-25" width="36" height="26" as="geometry" />
        </mxCell>
        <mxCell id="Cmbi52pBmRQw8JXsqRbH-79" value="1..*" style="text;html=1;align=center;verticalAlign=middle;resizable=0;points=[];autosize=1;strokeColor=none;fillColor=none;" vertex="1" parent="1">
          <mxGeometry x="1257" y="-36" width="36" height="26" as="geometry" />
        </mxCell>
        <mxCell id="Cmbi52pBmRQw8JXsqRbH-80" value="*..1" style="text;html=1;align=center;verticalAlign=middle;resizable=0;points=[];autosize=1;strokeColor=none;fillColor=none;" vertex="1" parent="1">
          <mxGeometry x="1329" y="-31" width="36" height="26" as="geometry" />
        </mxCell>
      </root>
    </mxGraphModel>
  </diagram>
</mxfile>
